<svg width="54" height="48" viewBox="0 0 54 48" fill="none" xmlns="http://www.w3.org/2000/svg">
<path fill-rule="evenodd" clip-rule="evenodd" d="M16.3326 0C15.1851 0 14.1662 0.73413 13.803 1.82268L11.742 8.00001H2.99674C1.52399 8.00001 0.330078 9.19392 0.330078 10.6667V45.3333C0.330078 46.8061 1.52399 48 2.99674 48H50.9967C52.4695 48 53.6634 46.8061 53.6634 45.3333V10.6667C53.6634 9.95944 53.3825 9.28116 52.8824 8.78106C52.3823 8.28096 51.704 8.00001 50.9967 8.00001L42.2527 8.00002L40.196 1.82411C39.8332 0.734832 38.814 0 37.6659 0H16.3326ZM16.193 11.5107L18.254 5.33333H35.7433L37.8 11.5092C38.1628 12.5985 39.182 13.3334 40.3301 13.3334L48.3301 13.3333V42.6667H5.66341V13.3333H13.6634C14.8109 13.3333 15.8298 12.5992 16.193 11.5107ZM34.9967 26.6667C34.9967 31.0849 31.415 34.6667 26.9967 34.6667C22.5785 34.6667 18.9967 31.0849 18.9967 26.6667C18.9967 22.2484 22.5785 18.6667 26.9967 18.6667C31.415 18.6667 34.9967 22.2484 34.9967 26.6667ZM40.3301 26.6667C40.3301 34.0305 34.3605 40 26.9967 40C19.6329 40 13.6634 34.0305 13.6634 26.6667C13.6634 19.3029 19.6329 13.3333 26.9967 13.3333C34.3605 13.3333 40.3301 19.3029 40.3301 26.6667Z" fill="#E6E6E9"/>
</svg>
